<!-- Generated by IcoMoon.io -->
<svg version="1.1" xmlns="http://www.w3.org/2000/svg" viewBox="0 0 32 32">
<title>github</title>
<path d="M13.192 26.776c0-0.131 0-0.392-0.131-0.522s-0.261-0.392-0.392-0.392c-0.131-0.131-0.261-0.261-0.522-0.261-0.131 0-0.392 0-0.522 0-1.698 0.261-3.918 0.392-4.441-1.306-0.522-1.306-1.306-2.351-2.351-3.135-0.131 0-0.131-0.131-0.261-0.131-0.131-0.261-0.261-0.522-0.522-0.653s-0.522-0.261-0.784-0.261v0c-0.392 0-0.653 0.131-0.914 0.392s-0.392 0.522-0.392 0.914c0 1.045 1.045 1.698 1.437 1.959 0.522 0.522 0.914 1.175 1.175 1.829 0.522 1.306 1.829 3.396 5.878 3.135 0 0 0 0.131 0 0.131v0.392c0 0.392 0.131 0.653 0.392 0.914 0.392 0.131 0.653 0.261 1.045 0.261s0.653-0.131 0.914-0.392 0.392-0.522 0.392-0.914v-0.392c0-0.261 0-0.653 0-1.567zM27.037 7.053c0-0.131 0.131-0.392 0.131-0.522 0.261-1.437 0-3.004-0.522-4.31-0.131-0.131-0.131-0.392-0.261-0.522s-0.261-0.261-0.522-0.261c-0.522-0.131-2.22-0.522-5.486 1.698-2.743-0.653-5.616-0.653-8.359 0-3.135-2.090-4.833-1.829-5.355-1.698-0.131 0-0.392 0.131-0.522 0.261s-0.261 0.261-0.261 0.522c-0.653 1.306-0.784 2.873-0.522 4.31 0 0.131 0.131 0.261 0.131 0.522-1.176 1.437-1.698 3.135-1.698 4.963 0 0.392 0 0.784 0 1.175 0.392 6.008 4.31 7.837 7.053 8.49 0 0.131-0.131 0.392-0.131 0.522-0.131 0.392 0 0.653 0.131 1.045 0.261 0.261 0.522 0.392 0.914 0.522s0.653 0 1.045-0.131c0.261-0.131 0.522-0.522 0.653-0.784 0.131-0.392 0.261-0.784 0.653-1.175 0.131-0.131 0.392-0.392 0.392-0.653 0.131-0.261 0-0.522 0-0.784-0.131-0.261-0.261-0.392-0.392-0.653-0.131-0.131-0.392-0.261-0.653-0.261-4.571-0.522-6.531-2.351-6.792-6.4 0-0.261 0-0.653 0-0.914 0-1.306 0.392-2.482 1.175-3.527-0.131-0.131-0.131-0.261 0-0.261 0.131-0.261 0.261-0.392 0.261-0.653s0-0.522 0-0.653c-0.131-0.261-0.131-0.522-0.261-0.784 0-0.784 0-1.437 0.131-2.090 1.176 0.261 2.22 0.784 3.135 1.437 0.131 0.131 0.392 0.131 0.522 0.261 0.131 0 0.392 0 0.522 0 2.612-0.653 5.486-0.653 8.098 0 0.131 0 0.392 0 0.522 0s0.392-0.131 0.522-0.261c0.914-0.653 1.959-1.175 3.135-1.567 0.131 0.653 0.261 1.437 0.131 2.090 0 0.261-0.131 0.522-0.261 0.784s-0.131 0.522 0 0.653c0 0.261 0.131 0.392 0.261 0.653 0.261 0.131 0.261 0.261 0.392 0.392 0.784 1.045 1.175 2.22 1.175 3.527 0 0.392 0 0.653 0 1.045-0.261 4.049-2.22 5.878-6.792 6.4-0.261 0-0.522 0.131-0.653 0.261s-0.392 0.392-0.392 0.653c-0.131 0.261-0.131 0.522 0 0.784s0.261 0.522 0.392 0.653c0.261 0.261 0.522 0.784 0.653 1.175s0.131 0.653 0.131 1.045v3.004c0 0.784 0 1.437 0 1.829s0.131 0.653 0.392 0.914c0.261 0.261 0.522 0.392 0.914 0.392s0.653-0.131 0.914-0.392c0.261-0.261 0.392-0.522 0.392-0.914 0-0.261 0-0.914 0-1.698v-3.004c0-0.522 0-1.175-0.261-1.698 0-0.131-0.131-0.392-0.131-0.522 1.959-0.392 3.788-1.306 5.094-2.873s1.959-3.527 1.959-5.486c0-0.392 0-0.784 0-1.306 0-2.090-0.522-3.788-1.698-5.224v0z"></path>
</svg>
