<!-- Generated by IcoMoon.io -->
<svg version="1.1" xmlns="http://www.w3.org/2000/svg" viewBox="0 0 32 32">
<title>instagram</title>
<path d="M16.067 9.372c-1.339 0-2.678 0.402-3.749 1.071s-2.008 1.741-2.41 2.946c-0.536 1.339-0.669 2.678-0.402 4.017s0.937 2.544 1.874 3.481c0.937 0.937 2.142 1.607 3.481 1.874s2.678 0.134 3.883-0.402 2.276-1.339 2.946-2.41c0.669-1.205 1.071-2.544 1.071-3.883 0-1.741-0.669-3.481-2.008-4.686-1.205-1.339-2.946-2.008-4.686-2.008zM16.067 20.084c-0.803 0-1.607-0.268-2.276-0.669s-1.205-1.071-1.473-1.741c-0.268-0.803-0.402-1.607-0.134-2.41 0.134-0.803 0.536-1.473 1.071-2.008s1.339-0.937 2.008-1.071c0.803-0.268 1.607-0.134 2.276 0.134s1.339 0.803 1.741 1.473c0.402 0.669 0.669 1.473 0.669 2.276 0 1.071-0.402 2.142-1.205 2.812s-1.607 1.205-2.678 1.205zM22.762 8.033c-0.268 0-0.536 0.134-0.803 0.268s-0.402 0.402-0.536 0.536c0 0.268 0 0.536 0 0.803s0.134 0.536 0.402 0.669c0.134 0.134 0.402 0.268 0.669 0.402 0.268 0 0.536 0 0.803-0.134s0.402-0.268 0.536-0.536c0.134-0.134 0.268-0.402 0.268-0.669 0-0.402-0.134-0.669-0.402-0.937s-0.536-0.402-0.937-0.402zM29.322 10.979c0-1.205-0.268-2.276-0.669-3.347-0.402-0.937-0.937-1.874-1.741-2.544-0.803-0.803-1.607-1.339-2.544-1.741-1.071-0.402-2.142-0.669-3.347-0.669s-1.607 0-4.954 0-3.749 0-5.088 0.134c-1.205 0-2.276 0.268-3.347 0.669-0.937 0.268-1.741 0.803-2.544 1.607s-1.339 1.607-1.741 2.544c-0.402 1.071-0.536 2.276-0.536 3.347-0.134 1.339-0.134 1.741-0.134 5.088s0 3.749 0.134 5.088c0 1.205 0.268 2.276 0.669 3.347 0.402 0.937 0.937 1.874 1.741 2.544 0.803 0.803 1.607 1.339 2.544 1.741 1.071 0.402 2.142 0.669 3.347 0.669 1.339 0 1.741 0.134 5.088 0.134s3.749 0 5.088-0.134c1.205 0 2.276-0.268 3.347-0.669 0.937-0.402 1.874-0.937 2.544-1.741s1.339-1.607 1.741-2.544c0.402-1.071 0.669-2.142 0.669-3.347 0-1.339 0.134-1.741 0.134-5.088s-0.268-3.749-0.402-5.088zM26.644 21.021c0 0.803-0.134 1.741-0.536 2.544-0.268 0.669-0.669 1.205-1.071 1.741s-1.071 0.803-1.741 1.071c-0.803 0.268-1.607 0.402-2.544 0.536-1.205 0-1.607 0-4.954 0s-3.615 0-4.82 0c-0.803 0-1.741-0.134-2.544-0.536-0.669-0.268-1.205-0.669-1.741-1.071s-0.803-1.071-1.071-1.741c-0.268-0.803-0.402-1.607-0.536-2.544 0-1.339 0-1.741 0-4.954s0-3.615 0-4.954c0-0.803 0.134-1.741 0.536-2.544 0.536-0.536 0.937-1.071 1.339-1.473 0.536-0.536 1.071-0.937 1.741-1.071 0.803-0.268 1.607-0.402 2.544-0.536 1.205-0.134 1.607-0.134 4.82-0.134s3.615 0 4.954 0c0.803 0 1.741 0.134 2.544 0.536 0.669 0.268 1.205 0.536 1.607 1.071 0.536 0.402 0.803 1.071 1.071 1.741s0.536 1.607 0.536 2.41c0 1.339 0 1.741 0 4.954s0 3.615-0.134 4.954v0z"></path>
</svg>
