<!-- Generated by IcoMoon.io -->
<svg version="1.1" xmlns="http://www.w3.org/2000/svg" viewBox="0 0 32 32">
<title>linkedin</title>
<path d="M22.311 11.474c-1.147 0-2.295 0.255-3.315 0.765-0.128-0.255-0.255-0.51-0.51-0.637-0.128 0-0.382-0.127-0.637-0.127h-5.1c-0.127 0-0.255 0-0.51 0.127-0.127 0-0.255 0.127-0.382 0.255s-0.255 0.255-0.255 0.382c-0.127 0.127-0.127 0.382-0.127 0.51v15.299c0 0.128 0 0.382 0.127 0.51s0.127 0.255 0.255 0.382c0.127 0.128 0.255 0.255 0.382 0.255 0.255 0.128 0.382 0.128 0.51 0.128h5.1c0.128 0 0.382 0 0.51-0.128s0.255-0.128 0.382-0.255c0.128-0.128 0.255-0.255 0.255-0.382 0.128-0.128 0.128-0.382 0.128-0.51v-7.012c0-0.382 0.128-0.637 0.382-0.892s0.51-0.382 0.892-0.382 0.637 0.128 0.892 0.382 0.382 0.51 0.382 0.892v7.012c0 0.128 0 0.382 0.128 0.51s0.128 0.255 0.255 0.382c0.128 0.128 0.255 0.255 0.382 0.255 0.255 0.128 0.382 0.128 0.51 0.128h5.1c0.128 0 0.382 0 0.51-0.128s0.255-0.128 0.382-0.255c0.128-0.128 0.255-0.255 0.255-0.382 0.128-0.128 0.128-0.382 0.128-0.51v-9.562c0-1.912-0.765-3.697-2.040-4.972s-3.060-2.040-4.972-2.040zM26.773 26.773h-2.55v-5.737c0-1.020-0.382-2.040-1.147-2.677-0.765-0.765-1.657-1.147-2.677-1.147s-2.040 0.382-2.677 1.147-1.147 1.657-1.147 2.677v5.737h-2.55v-12.749h2.55v0.892c0 0.255 0.128 0.51 0.255 0.765s0.382 0.382 0.637 0.51c0.255 0.128 0.51 0.128 0.765 0s0.51-0.255 0.637-0.382c0.51-0.765 1.402-1.275 2.295-1.53s1.785-0.255 2.677 0.127c0.892 0.255 1.657 0.892 2.167 1.657s0.765 1.657 0.765 2.55v8.159zM8.924 11.474h-5.1c-0.127 0-0.255 0-0.51 0.127-0.127 0-0.255 0.127-0.382 0.255s-0.255 0.255-0.255 0.382c-0.127 0.127-0.127 0.382-0.127 0.51v15.299c0 0.128 0 0.382 0.127 0.51s0.127 0.255 0.255 0.382c0.127 0.128 0.255 0.255 0.382 0.255 0.255 0.128 0.382 0.128 0.51 0.128h5.1c0.127 0 0.382 0 0.51-0.128s0.255-0.128 0.382-0.255c0.127-0.128 0.255-0.255 0.255-0.382 0.127-0.128 0.127-0.382 0.127-0.51v-15.299c0-0.127 0-0.382-0.127-0.51 0-0.127-0.127-0.255-0.255-0.382s-0.255-0.255-0.382-0.255c-0.127-0.127-0.382-0.127-0.51-0.127zM7.649 26.773h-2.55v-12.749h2.55v12.749zM6.375 1.912c-0.51 0-1.147 0-1.657 0.255s-0.892 0.51-1.402 0.892c-0.382 0.382-0.637 0.892-0.892 1.402s-0.382 1.020-0.382 1.53c0 0.51 0.127 1.147 0.382 1.657 0.127 0.51 0.51 1.020 0.892 1.402s0.892 0.637 1.402 0.892c0.51 0.127 1.020 0.255 1.657 0.255v0c0.51 0 1.147 0 1.657-0.255 0.51-0.127 1.020-0.51 1.402-0.892s0.765-0.765 1.020-1.275c0.255-0.51 0.382-1.020 0.382-1.657s-0.255-1.147-0.382-1.657c-0.255-0.51-0.637-1.020-1.020-1.402s-0.892-0.637-1.402-0.892c-0.51-0.127-1.020-0.255-1.657-0.255v0zM6.375 7.649v0c-0.255 0-0.51 0-0.637 0-0.255-0.128-0.51-0.255-0.637-0.382s-0.255-0.382-0.382-0.51c-0.128-0.255-0.128-0.51-0.128-0.637 0-1.020 0.765-1.657 1.785-1.657 0.255 0 0.51 0 0.637 0 0.255 0.128 0.51 0.255 0.637 0.382 0.128 0.255 0.255 0.382 0.382 0.637s0.127 0.382 0.127 0.637c0 0.892-0.637 1.53-1.785 1.53z"></path>
</svg>
